<svg width="33" height="32" viewBox="0 0 33 32" fill="none" xmlns="http://www.w3.org/2000/svg">
<path d="M16.4998 31C11.4119 31 7.86755 30.6766 5.73516 30.3923C3.82734 30.138 2.35615 28.6897 2.08252 26.7803C1.80438 24.8395 1.49976 21.7757 1.49976 17.6667C1.49976 13.5576 1.80438 10.4939 2.08252 8.55308C2.35615 6.6437 3.82734 5.19532 5.73517 4.94101C7.86755 4.65677 11.4119 4.33334 16.4998 4.33334C21.5876 4.33334 25.132 4.65677 27.2644 4.94101C29.1722 5.19532 30.6434 6.6437 30.917 8.55308C31.1952 10.4939 31.4998 13.5576 31.4998 17.6667C31.4998 21.7757 31.1952 24.8395 30.917 26.7803C30.6434 28.6897 29.1722 30.138 27.2644 30.3923C25.132 30.6766 21.5876 31 16.4998 31Z" fill="#FFBEC2"/>
<path d="M22.8333 9.67842C22.4975 9.67842 22.202 9.66935 21.9424 9.65408C20.4294 9.56522 19.5777 8.31915 19.5306 7.04228C19.5132 6.56974 19.5 5.99693 19.5 5.34507C19.5 4.6932 19.5132 4.1204 19.5306 3.64784C19.5777 2.37096 20.4294 1.12493 21.9424 1.03603C22.202 1.02078 22.4975 1.01174 22.8333 1.01174C23.1692 1.01174 23.4647 1.02078 23.7243 1.03603C25.2373 1.12493 26.0889 2.37096 26.1361 3.64784C26.1535 4.1204 26.1667 4.6932 26.1667 5.34507C26.1667 5.99693 26.1535 6.56974 26.1361 7.04228C26.0889 8.31915 25.2373 9.56522 23.7243 9.65408C23.4647 9.66935 23.1692 9.67842 22.8333 9.67842Z" fill="#F35664"/>
<path d="M10.1666 9.67842C9.83072 9.67842 9.53525 9.66935 9.27565 9.65408C7.76265 9.56522 6.91099 8.31915 6.86388 7.04228C6.84644 6.56974 6.83325 5.99693 6.83325 5.34507C6.83325 4.6932 6.84644 4.1204 6.86388 3.64784C6.91099 2.37096 7.76265 1.12493 9.27565 1.03603C9.53525 1.02078 9.83072 1.01174 10.1666 1.01174C10.5025 1.01174 10.7979 1.02078 11.0575 1.03603C12.5705 1.12493 13.4222 2.37096 13.4693 3.64784C13.4867 4.1204 13.4999 4.6932 13.4999 5.34507C13.4999 5.99693 13.4867 6.56974 13.4693 7.04228C13.4222 8.31915 12.5705 9.56522 11.0575 9.65408C10.7979 9.66935 10.5025 9.67842 10.1666 9.67842Z" fill="#F35664"/>
<path fill-rule="evenodd" clip-rule="evenodd" d="M23.4184 15.8862C24.0919 15.0107 23.9281 13.755 23.0526 13.0815C22.1771 12.4081 20.9214 12.5719 20.2479 13.4473L15.5012 19.6181L12.599 16.6395C11.8281 15.8483 10.5619 15.8319 9.77076 16.6027C8.97963 17.3736 8.96323 18.6398 9.73403 19.4309L14.2468 24.0625C14.6516 24.4779 15.2169 24.6972 15.796 24.6633C16.375 24.6295 16.9109 24.3459 17.2646 23.8862L23.4184 15.8862Z" fill="#F35664"/>
</svg>
