<svg width="33" height="32" viewBox="0 0 33 32" fill="none" xmlns="http://www.w3.org/2000/svg">
<path d="M16.5 0.999998C18.5803 0.999998 20.4482 1.90804 21.7293 3.34658C22.7193 2.70589 23.9001 2.33333 25.1667 2.33333C28.6645 2.33333 31.5 5.16886 31.5 8.66666C31.5 11.291 29.9045 13.5405 27.6323 14.5018C27.1203 20.8339 26.5288 25.8645 26.2259 28.2707C26.0532 29.642 24.9533 30.7123 23.5514 30.8027C22.1392 30.8939 19.7887 31 16.5 31C13.2113 31 10.8608 30.8939 9.4486 30.8027C8.04667 30.7123 6.9468 29.642 6.77416 28.2707C6.47122 25.8645 5.87966 20.8339 5.36771 14.5018C3.09549 13.5405 1.5 11.291 1.5 8.66666C1.5 5.16886 4.33553 2.33333 7.83333 2.33333C9.09987 2.33333 10.2807 2.70589 11.2707 3.34658C12.5518 1.90804 14.4197 0.999998 16.5 0.999998Z" fill="#FFBEC2"/>
<path d="M26.6197 24.9651C26.4648 26.3349 26.3287 27.454 26.2259 28.2707C26.0533 29.642 24.9534 30.7123 23.5515 30.8027C22.1393 30.8939 19.7887 31 16.5001 31C13.2113 31 10.8609 30.8939 9.44866 30.8027C8.04666 30.7123 6.94684 29.642 6.7742 28.2707C6.67138 27.454 6.5353 26.3349 6.38037 24.9652C7.88353 24.8619 10.8906 24.7318 16.5006 24.7318C22.1092 24.7318 25.1162 24.8619 26.6197 24.9651Z" fill="#F35664"/>
<path fill-rule="evenodd" clip-rule="evenodd" d="M13.0011 12.6771C13.7318 12.5857 14.3982 13.1041 14.4895 13.8347L15.1562 19.1681C15.2475 19.8988 14.7292 20.5652 13.9985 20.6565C13.2678 20.7479 12.6014 20.2295 12.5101 19.4989L11.8434 14.1655C11.7521 13.4348 12.2704 12.7685 13.0011 12.6771Z" fill="#F35664"/>
<path fill-rule="evenodd" clip-rule="evenodd" d="M19.9988 12.6771C19.2681 12.5857 18.6017 13.1041 18.5104 13.8347L17.8437 19.1681C17.7524 19.8988 18.2706 20.5652 19.0014 20.6565C19.732 20.7479 20.3984 20.2295 20.4898 19.4989L21.1564 14.1655C21.2478 13.4348 20.7294 12.7685 19.9988 12.6771Z" fill="#F35664"/>
</svg>
