<svg width="21" height="20" viewBox="0 0 21 20" fill="none" xmlns="http://www.w3.org/2000/svg">
<g clip-path="url(#clip0_441_3531)">
<path d="M18.1166 3.84172C17.691 3.41589 17.1856 3.0781 16.6294 2.84763C16.0732 2.61716 15.477 2.49854 14.8749 2.49854C14.2729 2.49854 13.6767 2.61716 13.1205 2.84763C12.5643 3.0781 12.0589 3.41589 11.6333 3.84172L10.7499 4.72506L9.8666 3.84172C9.00686 2.98198 7.8408 2.49898 6.62494 2.49898C5.40908 2.49898 4.24301 2.98198 3.38327 3.84172C2.52353 4.70147 2.04053 5.86753 2.04053 7.08339C2.04053 8.29925 2.52353 9.46531 3.38327 10.3251L4.2666 11.2084L10.7499 17.6917L17.2333 11.2084L18.1166 10.3251C18.5424 9.89943 18.8802 9.39407 19.1107 8.83785C19.3412 8.28164 19.4598 7.68546 19.4598 7.08339C19.4598 6.48132 19.3412 5.88514 19.1107 5.32893C18.8802 4.77271 18.5424 4.26735 18.1166 3.84172Z" stroke="#A09CAB" stroke-width="1.5" stroke-linecap="round" stroke-linejoin="round"/>
</g>
<defs>
<clipPath id="clip0_441_3531">
<rect width="20" height="20" fill="white" transform="translate(0.75)"/>
</clipPath>
</defs>
</svg>
