<svg width="33" height="32" viewBox="0 0 33 32" fill="none" xmlns="http://www.w3.org/2000/svg">
<path fill-rule="evenodd" clip-rule="evenodd" d="M3.5 14.0001C3.5 6.82033 9.32027 1.00006 16.5 1.00006C23.6797 1.00006 29.5 6.82033 29.5 14.0001C29.5 18.6583 27.0963 22.5768 24.4828 25.4686C21.8611 28.3695 18.9318 30.346 17.6577 31.1394C16.9431 31.5844 16.0569 31.5844 15.3423 31.1394C14.0682 30.346 11.1389 28.3695 8.5172 25.4686C5.90373 22.5768 3.5 18.6583 3.5 14.0001Z" fill="#FFBEC2"/>
<path fill-rule="evenodd" clip-rule="evenodd" d="M9.63195 12.2216C10.2932 9.20878 13.9522 7.96192 16.2445 9.99598C16.3325 10.0737 16.4184 10.1597 16.5004 10.2451C16.5825 10.1597 16.6684 10.0737 16.7564 9.99598C19.0487 7.96192 22.7078 9.20878 23.3689 12.2215C23.8057 14.0968 23.1176 15.7212 22.0428 17.0807C20.9725 18.4345 19.4895 19.564 18.2616 20.4696C17.217 21.2402 15.784 21.2402 14.7394 20.4696C13.5114 19.564 12.0284 18.4345 10.9581 17.0807C9.88329 15.7212 9.19522 14.0968 9.63195 12.2216Z" fill="#F35664"/>
</svg>
