<svg width="33" height="32" viewBox="0 0 33 32" fill="none" xmlns="http://www.w3.org/2000/svg">
<path fill-rule="evenodd" clip-rule="evenodd" d="M20.0968 4.92362C20.648 3.24766 23.0188 3.24768 23.57 4.92362L25.2215 9.94526L30.2432 11.5967C31.9191 12.1479 31.9191 14.5187 30.2432 15.0699L25.2215 16.7214L23.57 21.7431C23.0188 23.419 20.648 23.419 20.0968 21.7431L18.4454 16.7214L13.4237 15.0699C11.7478 14.5187 11.7478 12.1479 13.4237 11.5967L18.4454 9.94526L20.0968 4.92362Z" fill="#F35664"/>
<path d="M12.7629 16.8219C12.2563 15.2815 10.0771 15.2815 9.57047 16.8219L8.354 20.5206L4.65536 21.7371C3.11488 22.2437 3.11488 24.4229 4.65536 24.9295L8.354 26.1459L9.57047 29.8446C10.0771 31.3851 12.2563 31.3851 12.7629 29.8446L13.9793 26.1459L17.678 24.9295C19.2185 24.4229 19.2185 22.2437 17.678 21.7371L13.9793 20.5206L12.7629 16.8219Z" fill="#FFBEC2"/>
<path d="M10.0316 2.10855C9.54547 0.630436 7.45453 0.630434 6.96841 2.10855L5.88941 5.38937L2.60859 6.46837C1.13047 6.9545 1.13047 9.04543 2.60859 9.53156L5.88941 10.6106L6.96841 13.8914C7.45453 15.3695 9.54547 15.3695 10.0316 13.8914L11.1106 10.6106L14.3914 9.53156C15.8695 9.04543 15.8695 6.9545 14.3914 6.46837L11.1106 5.38937L10.0316 2.10855Z" fill="#FFBEC2"/>
</svg>
